<svg width="170.548828" height="120.867188" viewBox="0 0 170.549 120.867" fill="none" xmlns="http://www.w3.org/2000/svg" xmlns:xlink="http://www.w3.org/1999/xlink">
	<desc>
			Created with Pixso.
	</desc>
	<defs/>
	<path id="Vector 1" d="M137.831 84.8105C119.267 100.111 101.548 118.526 93.1763 117.321C79.8066 117.564 24.3271 80.3916 9.49658 63.6709C-5.3335 46.9492 8.78906 30.9551 43.4297 17.9102C70.2812 7.79883 80.6211 38.3135 82.6914 56.3408C82.4785 50.1631 85.7285 36.1982 100.632 18.042C121.229 -7.05176 147.949 3.20605 162.552 28.1094C174.689 48.8076 161.035 65.6846 137.831 84.8105Z" fill="#DAC7ED" fill-opacity="1.000000" fill-rule="nonzero"/>
	<path id="Vector 1" d="M137.831 84.8105C161.035 65.6846 174.689 48.8076 162.552 28.1094C147.949 3.20605 121.229 -7.05176 100.632 18.042C84.1538 38.1172 81.9214 53.0684 82.8652 58.0342C81.2671 40.3115 71.1421 7.47461 43.4297 17.9102C8.78906 30.9551 -5.3335 46.9492 9.49658 63.6709C24.3271 80.3916 79.8066 117.564 93.1763 117.321C101.548 118.526 119.267 100.111 137.831 84.8105Z" stroke="#DAC7ED" stroke-opacity="1.000000" stroke-width="7.000000"/>
</svg>
