<svg width="22.483398" height="44.155273" viewBox="0 0 22.4834 44.1553" fill="none" xmlns="http://www.w3.org/2000/svg" xmlns:xlink="http://www.w3.org/1999/xlink">
	<desc>
			Created with Pixso.
	</desc>
	<defs/>
	<path id="Vector" d="M20.8193 13.5684C19.7095 10.9238 18.0825 8.55664 15.9375 6.46875C13.8318 4.39844 11.4055 2.80371 8.65796 1.68164C5.91162 0.560547 3.02563 0 0.000976562 0L0.000976562 6.35352C2.08789 6.35352 4.05933 6.74609 5.91577 7.53223C7.77319 8.31738 9.42871 9.45801 10.8833 10.9521C12.3379 12.4473 13.449 14.1436 14.2144 16.041C14.9807 17.9385 15.3625 19.9502 15.3625 22.0781C15.3625 24.2236 14.9797 26.2549 14.2144 28.1719C13.449 30.0869 12.3391 31.7832 10.8833 33.2598C9.42871 34.7539 7.76782 35.8945 5.90088 36.6807C4.03418 37.4658 2.06787 37.8594 0 37.8594L0 44.1553C3.04346 44.1553 5.92529 43.6094 8.64331 42.5176C11.3623 41.4248 13.7937 39.833 15.9365 37.7451C18.0803 35.6367 19.7083 33.25 20.8184 30.5879C21.9294 27.9238 22.4834 25.0869 22.4834 22.0791C22.4856 19.0498 21.9304 16.2139 20.8193 13.5684Z" fill="#A6A6A6" fill-opacity="1.000000" fill-rule="nonzero"/>
</svg>
