<svg width="44.105225" height="44.987305" viewBox="0 0 44.1052 44.9873" fill="none" xmlns="http://www.w3.org/2000/svg" xmlns:xlink="http://www.w3.org/1999/xlink">
	<desc>
			Created with Pixso.
	</desc>
	<defs/>
	<path id="Vector" d="M22.052 44.9873C19.0657 44.9873 16.2419 44.4268 13.5811 43.3057C10.9204 42.1846 8.5459 40.5498 6.46021 38.4043C4.37329 36.2383 2.7749 33.7959 1.66504 31.0742C0.554932 28.3525 0 25.498 0 22.5088C0 19.4795 0.560303 16.5918 1.67969 13.8418C2.79932 11.0908 4.39355 8.66211 6.46118 6.55469C8.54712 4.4082 10.9119 2.77832 13.5537 1.66699C16.1956 0.554688 19.0276 0 22.0532 0C25.0586 0 27.8916 0.555664 30.5525 1.66699C33.2134 2.77832 35.5962 4.40723 37.7021 6.55469C39.7878 8.7002 41.3777 11.1348 42.4688 13.8555C43.5596 16.5762 44.1052 19.4619 44.1052 22.5088C44.1052 25.5361 43.5596 28.4053 42.4688 31.1182C41.3777 33.8291 39.7878 36.2578 37.7021 38.4053C35.5771 40.5518 33.1794 42.1855 30.5093 43.3066C27.8379 44.4268 25.0195 44.9873 22.052 44.9873ZM22.052 37.8584C24.177 37.8584 26.196 37.4697 28.1106 36.6943C30.0239 35.9189 31.728 34.8008 33.2219 33.3457C34.6956 31.9277 35.8298 30.2842 36.6248 28.416C37.4187 26.5469 37.8162 24.5781 37.8162 22.5088C37.8162 20.4385 37.4241 18.4697 36.6384 16.6006C35.853 14.7314 34.7146 13.0693 33.2219 11.6133C31.7471 10.1572 30.0535 9.04492 28.1392 8.27832C26.2246 7.51074 24.1948 7.12891 22.052 7.12891C19.9272 7.12891 17.9175 7.51172 16.022 8.27832C14.1267 9.04492 12.4331 10.1553 10.9395 11.6133C9.44653 13.0693 8.30713 14.7266 7.52271 16.5859C6.7373 18.4443 6.34497 20.418 6.34497 22.5078C6.34497 24.5576 6.7373 26.5078 7.52271 28.3574C8.30713 30.207 9.44653 31.8691 10.9395 33.3457C12.4321 34.8018 14.1309 35.9189 16.0359 36.6943C17.9409 37.4697 19.9463 37.8584 22.052 37.8584Z" fill="#A6A6A6" fill-opacity="1.000000" fill-rule="nonzero"/>
</svg>
